<svg width="16" height="16" viewBox="0 0 16 16" fill="none" xmlns="http://www.w3.org/2000/svg">
<g clip-path="url(#clip0_516_16285)">
<path d="M9.60011 2.84414e-06C9.47811 2.84414e-06 9.36111 0.048467 9.27484 0.134734C9.18858 0.221 9.14011 0.338003 9.14011 0.460003V2.29C9.14011 3.94 9.69011 4.62 10.6801 5.86L11.4301 6.86V2.29H13.7101V13.71H11.4301C11.4469 11.3218 10.5363 9.02027 8.89011 7.29C7.59088 5.95183 6.87217 4.15504 6.89011 2.29V0.460003C6.89025 0.396985 6.87743 0.334612 6.85246 0.276753C6.82749 0.218893 6.7909 0.166781 6.74496 0.12365C6.69901 0.0805183 6.64469 0.0472869 6.58537 0.0260172C6.52605 0.00474737 6.463 -0.00410715 6.40011 2.84414e-06H0.460114C0.399332 -0.00136357 0.338903 0.00960089 0.282476 0.0322344C0.226048 0.0548678 0.174792 0.0887009 0.131802 0.131691C0.0888117 0.174681 0.0549786 0.225937 0.0323452 0.282365C0.00971173 0.338792 -0.00125274 0.399221 0.000113674 0.460003V15.54C-0.00125274 15.6008 0.00971173 15.6612 0.0323452 15.7176C0.0549786 15.7741 0.0888117 15.8253 0.131802 15.8683C0.174792 15.9113 0.226048 15.9451 0.282476 15.9678C0.338903 15.9904 0.399332 16.0014 0.460114 16H6.40011C6.52211 16 6.63912 15.9515 6.72538 15.8653C6.81165 15.779 6.86011 15.662 6.86011 15.54V13.71C6.86011 12.06 6.31011 11.38 5.33011 10.14C5.09011 9.84 4.83011 9.52 4.57011 9.14V13.67H2.29011V2.29H4.57011C4.55334 4.6782 5.46391 6.97974 7.11011 8.71C8.40935 10.0482 9.12806 11.845 9.11011 13.71V15.54C9.10998 15.603 9.1228 15.6654 9.14777 15.7233C9.17274 15.7811 9.20933 15.8332 9.25527 15.8764C9.30122 15.9195 9.35553 15.9527 9.41485 15.974C9.47417 15.9953 9.53723 16.0041 9.60011 16H15.5401C15.6621 16 15.7791 15.9515 15.8654 15.8653C15.9516 15.779 16.0001 15.662 16.0001 15.54V0.460003C16.0001 0.338003 15.9516 0.221 15.8654 0.134734C15.7791 0.048467 15.6621 2.84414e-06 15.5401 2.84414e-06H9.60011Z" fill="#CDAD80"/>
</g>
<defs>
<clipPath id="clip0_516_16285">
<rect width="16" height="16" fill="white"/>
</clipPath>
</defs>
</svg>
