<svg xmlns="http://www.w3.org/2000/svg" width="100" height="100" viewBox="0 0 100 100">
    <defs>
        <style>
            .cls-1{fill:#707070}
        </style>
    </defs>
    <g id="no-results_svg" transform="translate(0 -0.001)">
        <path id="Path_230" d="M253.833 193.623a1.811 1.811 0 0 0 0-3.623 1.811 1.811 0 1 0 0 3.623z" class="cls-1" transform="translate(-202.655 -152.782)"/>
        <path id="Path_231" d="M303.833 193.623a1.811 1.811 0 1 0 0-3.623 1.811 1.811 0 1 0 0 3.623z" class="cls-1" transform="translate(-242.86 -152.782)"/>
        <path id="Path_232" d="M353.833 193.623a1.811 1.811 0 1 0 0-3.623 1.811 1.811 0 1 0 0 3.623z" class="cls-1" transform="translate(-283.066 -152.782)"/>
        <path id="Path_233" d="M95.318 61.556a7.931 7.931 0 0 0-1.006-2.186 39.051 39.051 0 0 0-59.978-48.882A8.021 8.021 0 0 0 28.8 8.261q-.358 0-.713.032a11.3 11.3 0 0 0-20.05 5.037 6.627 6.627 0 0 0 .753 13.207h15.148A39.037 39.037 0 0 0 28.4 60.655L2.516 85.464l-.03.029a8.5 8.5 0 0 0 12.022 12.022l.029-.03L39.345 71.6a39.054 39.054 0 0 0 39.019 2.432h15.289a6.348 6.348 0 0 0 1.665-12.473zM8.791 22.631a2.721 2.721 0 0 1 .031-5.441h1.007a1.953 1.953 0 0 0 1.953-1.953 7.4 7.4 0 0 1 13.739-3.8 1.953 1.953 0 0 0 2.194.877 4.088 4.088 0 0 1 3.9.974 39.19 39.19 0 0 0-6.115 9.343H8.791zm2.942 72.136a4.595 4.595 0 0 1-6.5-6.5l17.7-16.958 5.76 5.76zm19.66-20.518l-5.642-5.642 5-4.788a39.4 39.4 0 0 0 5.434 5.434zm-5.608-35.187a35.155 35.155 0 1 1 65.579 17.624 7.92 7.92 0 0 0-3.731-.933h-.274A31.255 31.255 0 0 0 46.388 11.4a1.953 1.953 0 0 0 1.822 3.456 27.349 27.349 0 0 1 36.058 38.477 11.288 11.288 0 0 0-17.4 7.489A6.641 6.641 0 0 0 61.1 66.4h-.16a27.349 27.349 0 0 1-24.2-40.072 1.953 1.953 0 1 0-3.455-1.822A31.255 31.255 0 0 0 60.94 70.31h.752a6.63 6.63 0 0 0 4.393 3.542 35.706 35.706 0 0 1-5.144.369 35.2 35.2 0 0 1-35.156-35.159zm67.868 31.061H67.62a2.721 2.721 0 0 1 .031-5.441h1.008a1.953 1.953 0 0 0 1.953-1.953 7.4 7.4 0 0 1 13.739-3.8 1.952 1.952 0 0 0 2.194.877 4.088 4.088 0 0 1 5.162 3.627 1.953 1.953 0 0 0 1.948 1.808 2.441 2.441 0 0 1 0 4.883z" class="cls-1"/>
        <path id="Path_234" d="M197.764 87.557a1.811 1.811 0 1 0 0-3.623 1.811 1.811 0 0 0 0 3.623z" class="cls-1" transform="translate(-157.568 -67.492)"/>
    </g>
</svg>
